%TF.GenerationSoftware,KiCad,Pcbnew,(6.0.11-0)*%
%TF.CreationDate,2024-05-25T22:05:18+02:00*%
%TF.ProjectId,The Mechanical Turk,54686520-4d65-4636-9861-6e6963616c20,rev?*%
%TF.SameCoordinates,Original*%
%TF.FileFunction,Copper,L1,Top*%
%TF.FilePolarity,Positive*%
%FSLAX46Y46*%
G04 Gerber Fmt 4.6, Leading zero omitted, Abs format (unit mm)*
G04 Created by KiCad (PCBNEW (6.0.11-0)) date 2024-05-25 22:05:18*
%MOMM*%
%LPD*%
G01*
G04 APERTURE LIST*
G04 Aperture macros list*
%AMRoundRect*
0 Rectangle with rounded corners*
0 $1 Rounding radius*
0 $2 $3 $4 $5 $6 $7 $8 $9 X,Y pos of 4 corners*
0 Add a 4 corners polygon primitive as box body*
4,1,4,$2,$3,$4,$5,$6,$7,$8,$9,$2,$3,0*
0 Add four circle primitives for the rounded corners*
1,1,$1+$1,$2,$3*
1,1,$1+$1,$4,$5*
1,1,$1+$1,$6,$7*
1,1,$1+$1,$8,$9*
0 Add four rect primitives between the rounded corners*
20,1,$1+$1,$2,$3,$4,$5,0*
20,1,$1+$1,$4,$5,$6,$7,0*
20,1,$1+$1,$6,$7,$8,$9,0*
20,1,$1+$1,$8,$9,$2,$3,0*%
G04 Aperture macros list end*
%TA.AperFunction,SMDPad,CuDef*%
%ADD10RoundRect,0.155000X-0.212500X-0.155000X0.212500X-0.155000X0.212500X0.155000X-0.212500X0.155000X0*%
%TD*%
%TA.AperFunction,ComponentPad*%
%ADD11R,1.000000X1.000000*%
%TD*%
%TA.AperFunction,ComponentPad*%
%ADD12O,1.000000X1.000000*%
%TD*%
%TA.AperFunction,SMDPad,CuDef*%
%ADD13RoundRect,0.250000X-2.400000X0.575000X-2.400000X-0.575000X2.400000X-0.575000X2.400000X0.575000X0*%
%TD*%
%TA.AperFunction,SMDPad,CuDef*%
%ADD14RoundRect,0.155000X0.212500X0.155000X-0.212500X0.155000X-0.212500X-0.155000X0.212500X-0.155000X0*%
%TD*%
%TA.AperFunction,ComponentPad*%
%ADD15R,1.600000X1.600000*%
%TD*%
%TA.AperFunction,ComponentPad*%
%ADD16O,1.600000X1.600000*%
%TD*%
%TA.AperFunction,ComponentPad*%
%ADD17R,1.050000X1.500000*%
%TD*%
%TA.AperFunction,ComponentPad*%
%ADD18O,1.050000X1.500000*%
%TD*%
%TA.AperFunction,SMDPad,CuDef*%
%ADD19RoundRect,0.250001X-4.974999X0.799999X-4.974999X-0.799999X4.974999X-0.799999X4.974999X0.799999X0*%
%TD*%
%TA.AperFunction,SMDPad,CuDef*%
%ADD20RoundRect,0.250000X-0.575000X-2.400000X0.575000X-2.400000X0.575000X2.400000X-0.575000X2.400000X0*%
%TD*%
%TA.AperFunction,SMDPad,CuDef*%
%ADD21RoundRect,0.250000X2.400000X-0.575000X2.400000X0.575000X-2.400000X0.575000X-2.400000X-0.575000X0*%
%TD*%
%TA.AperFunction,SMDPad,CuDef*%
%ADD22R,1.550000X1.300000*%
%TD*%
%TA.AperFunction,SMDPad,CuDef*%
%ADD23R,1.500000X0.900000*%
%TD*%
%TA.AperFunction,SMDPad,CuDef*%
%ADD24R,0.900000X1.500000*%
%TD*%
%TA.AperFunction,SMDPad,CuDef*%
%ADD25R,4.100000X4.100000*%
%TD*%
%TA.AperFunction,SMDPad,CuDef*%
%ADD26RoundRect,0.249999X1.425001X-0.512501X1.425001X0.512501X-1.425001X0.512501X-1.425001X-0.512501X0*%
%TD*%
%TA.AperFunction,ComponentPad*%
%ADD27R,2.000000X4.000000*%
%TD*%
%TA.AperFunction,ComponentPad*%
%ADD28O,2.000000X3.300000*%
%TD*%
%TA.AperFunction,ComponentPad*%
%ADD29O,3.500000X2.000000*%
%TD*%
%TA.AperFunction,ComponentPad*%
%ADD30C,2.000000*%
%TD*%
%TA.AperFunction,ComponentPad*%
%ADD31O,2.000000X2.000000*%
%TD*%
%TA.AperFunction,SMDPad,CuDef*%
%ADD32RoundRect,0.155000X0.155000X-0.212500X0.155000X0.212500X-0.155000X0.212500X-0.155000X-0.212500X0*%
%TD*%
%TA.AperFunction,ComponentPad*%
%ADD33C,1.700000*%
%TD*%
%TA.AperFunction,ComponentPad*%
%ADD34R,1.700000X1.700000*%
%TD*%
%TA.AperFunction,SMDPad,CuDef*%
%ADD35RoundRect,0.250001X-2.324999X1.074999X-2.324999X-1.074999X2.324999X-1.074999X2.324999X1.074999X0*%
%TD*%
%TA.AperFunction,ViaPad*%
%ADD36C,0.800000*%
%TD*%
%TA.AperFunction,ViaPad*%
%ADD37C,1.016000*%
%TD*%
%TA.AperFunction,ViaPad*%
%ADD38C,0.406400*%
%TD*%
%TA.AperFunction,Conductor*%
%ADD39C,0.508000*%
%TD*%
%TA.AperFunction,Conductor*%
%ADD40C,0.254000*%
%TD*%
%TA.AperFunction,Conductor*%
%ADD41C,0.200000*%
%TD*%
G04 APERTURE END LIST*
D10*
%TO.P,C3,1*%
%TO.N,Net-(C3-Pad1)*%
X184344500Y-92710000D03*
%TO.P,C3,2*%
%TO.N,GND*%
X185479500Y-92710000D03*
%TD*%
D11*
%TO.P,J2,1,Pin_1*%
%TO.N,Net-(A1-Pad3)*%
X226622000Y-122550000D03*
D12*
%TO.P,J2,2,Pin_2*%
%TO.N,Net-(A1-Pad4)*%
X226622000Y-121280000D03*
%TO.P,J2,3,Pin_3*%
%TO.N,Net-(A1-Pad5)*%
X226622000Y-120010000D03*
%TO.P,J2,4,Pin_4*%
%TO.N,Net-(A1-Pad6)*%
X226622000Y-118740000D03*
%TD*%
D13*
%TO.P,R4,1*%
%TO.N,+3.3V*%
X147066000Y-109400000D03*
%TO.P,R4,2*%
%TO.N,Net-(D2-Pad2)*%
X147066000Y-119200000D03*
%TD*%
D11*
%TO.P,J3,1,Pin_1*%
%TO.N,Net-(A2-Pad3)*%
X226622000Y-99436000D03*
D12*
%TO.P,J3,2,Pin_2*%
%TO.N,Net-(A2-Pad4)*%
X226622000Y-98166000D03*
%TO.P,J3,3,Pin_3*%
%TO.N,Net-(A2-Pad5)*%
X226622000Y-96896000D03*
%TO.P,J3,4,Pin_4*%
%TO.N,Net-(A2-Pad6)*%
X226622000Y-95626000D03*
%TD*%
D14*
%TO.P,C2,1*%
%TO.N,+3.3V*%
X152713500Y-94992000D03*
%TO.P,C2,2*%
%TO.N,GND*%
X151578500Y-94992000D03*
%TD*%
D15*
%TO.P,A1,1,GND*%
%TO.N,GND*%
X216398000Y-128854000D03*
D16*
%TO.P,A1,2,VDD*%
%TO.N,+3.3V*%
X216398000Y-126314000D03*
%TO.P,A1,3,1B*%
%TO.N,Net-(A1-Pad3)*%
X216398000Y-123774000D03*
%TO.P,A1,4,1A*%
%TO.N,Net-(A1-Pad4)*%
X216398000Y-121234000D03*
%TO.P,A1,5,2A*%
%TO.N,Net-(A1-Pad5)*%
X216398000Y-118694000D03*
%TO.P,A1,6,2B*%
%TO.N,Net-(A1-Pad6)*%
X216398000Y-116154000D03*
%TO.P,A1,7,GND*%
%TO.N,GND*%
X216398000Y-113614000D03*
%TO.P,A1,8,VMOT*%
%TO.N,+12V*%
X216398000Y-111074000D03*
%TO.P,A1,9,~{ENABLE}*%
%TO.N,Net-(A1-Pad9)*%
X203698000Y-111074000D03*
%TO.P,A1,10,MS1*%
%TO.N,Net-(A1-Pad10)*%
X203698000Y-113614000D03*
%TO.P,A1,11,MS2*%
%TO.N,Net-(A1-Pad11)*%
X203698000Y-116154000D03*
%TO.P,A1,12,MS3*%
%TO.N,Net-(A1-Pad12)*%
X203698000Y-118694000D03*
%TO.P,A1,13,~{RESET}*%
%TO.N,Net-(A1-Pad13)*%
X203698000Y-121234000D03*
%TO.P,A1,14,~{SLEEP}*%
X203698000Y-123774000D03*
%TO.P,A1,15,STEP*%
%TO.N,Net-(A1-Pad15)*%
X203698000Y-126314000D03*
%TO.P,A1,16,DIR*%
%TO.N,Net-(A1-Pad16)*%
X203698000Y-128854000D03*
%TD*%
D17*
%TO.P,Q1,1,S*%
%TO.N,Net-(J4-Pad1)*%
X221542000Y-79370000D03*
D18*
%TO.P,Q1,2,G*%
%TO.N,IO16*%
X220272000Y-79370000D03*
%TO.P,Q1,3,D*%
%TO.N,Net-(Q1-Pad3)*%
X219002000Y-79370000D03*
%TD*%
D15*
%TO.P,U1,1,NC*%
%TO.N,unconnected-(U1-Pad1)*%
X117602000Y-110744000D03*
D16*
%TO.P,U1,2,NC*%
%TO.N,unconnected-(U1-Pad2)*%
X117602000Y-108204000D03*
%TO.P,U1,3,NC*%
%TO.N,unconnected-(U1-Pad3)*%
X117602000Y-105664000D03*
%TO.P,U1,4,FB*%
%TO.N,+3.3V*%
X117602000Y-103124000D03*
%TO.P,U1,5,~{ON}/OFF*%
%TO.N,GND*%
X109982000Y-103124000D03*
%TO.P,U1,6,GND*%
X109982000Y-105664000D03*
%TO.P,U1,7,VIN*%
%TO.N,+12V*%
X109982000Y-108204000D03*
%TO.P,U1,8,OUT*%
%TO.N,Net-(D1-Pad1)*%
X109982000Y-110744000D03*
%TD*%
D19*
%TO.P,CIN1,1*%
%TO.N,+12V*%
X100330000Y-99965000D03*
%TO.P,CIN1,2*%
%TO.N,GND*%
X100330000Y-108315000D03*
%TD*%
%TO.P,COUT1,1*%
%TO.N,+3.3V*%
X135636000Y-103013000D03*
%TO.P,COUT1,2*%
%TO.N,GND*%
X135636000Y-111363000D03*
%TD*%
D20*
%TO.P,R2,1*%
%TO.N,+3.3V*%
X202926000Y-79370000D03*
%TO.P,R2,2*%
%TO.N,Net-(Q1-Pad3)*%
X212726000Y-79370000D03*
%TD*%
D21*
%TO.P,R1,1*%
%TO.N,+3.3V*%
X178562000Y-102690000D03*
%TO.P,R1,2*%
%TO.N,Net-(C3-Pad1)*%
X178562000Y-92890000D03*
%TD*%
D22*
%TO.P,SW1,1,1*%
%TO.N,GND*%
X192278000Y-99314000D03*
X184328000Y-99314000D03*
%TO.P,SW1,2,2*%
%TO.N,Net-(C3-Pad1)*%
X192278000Y-94814000D03*
X184328000Y-94814000D03*
%TD*%
D23*
%TO.P,U2,1,GND*%
%TO.N,GND*%
X155205000Y-91223000D03*
%TO.P,U2,2,3V3*%
%TO.N,+3.3V*%
X155205000Y-92723000D03*
%TO.P,U2,3,IO00*%
%TO.N,N/C*%
X155205000Y-94223000D03*
%TO.P,U2,4,IO01*%
X155205000Y-95723000D03*
%TO.P,U2,5,IO02*%
%TO.N,unconnected-(U2-Pad5)*%
X155205000Y-97223000D03*
%TO.P,U2,6,IO03*%
%TO.N,unconnected-(U2-Pad6)*%
X155205000Y-98723000D03*
%TO.P,U2,7,IO04*%
%TO.N,unconnected-(U2-Pad7)*%
X155205000Y-100223000D03*
%TO.P,U2,8,IO05*%
%TO.N,unconnected-(U2-Pad8)*%
X155205000Y-101723000D03*
%TO.P,U2,9,IO06*%
%TO.N,N/C*%
X155205000Y-103223000D03*
%TO.P,U2,10,IO07*%
%TO.N,unconnected-(U2-Pad10)*%
X155205000Y-104723000D03*
%TO.P,U2,11,IO08*%
%TO.N,unconnected-(U2-Pad11)*%
X155205000Y-106223000D03*
%TO.P,U2,12,IO09*%
%TO.N,N/C*%
X155205000Y-107723000D03*
%TO.P,U2,13,IO10*%
X155205000Y-109223000D03*
%TO.P,U2,14,IO11*%
X155205000Y-110723000D03*
%TO.P,U2,15,IO12*%
X155205000Y-112223000D03*
%TO.P,U2,16,IO13*%
X155205000Y-113723000D03*
D24*
%TO.P,U2,17,IO14*%
%TO.N,unconnected-(U2-Pad17)*%
X157080000Y-114473000D03*
%TO.P,U2,18,IO15*%
%TO.N,N/C*%
X158580000Y-114473000D03*
%TO.P,U2,19,IO16*%
%TO.N,IO16*%
X160080000Y-114473000D03*
%TO.P,U2,20,IO17*%
%TO.N,unconnected-(U2-Pad20)*%
X161580000Y-114473000D03*
%TO.P,U2,21,IO18*%
%TO.N,unconnected-(U2-Pad21)*%
X163080000Y-114473000D03*
%TO.P,U2,22,USB_D-*%
%TO.N,N/C*%
X164580000Y-114473000D03*
%TO.P,U2,23,USB_D+*%
X166080000Y-114473000D03*
%TO.P,U2,24,IO21*%
%TO.N,Net-(A2-Pad12)*%
X167580000Y-114473000D03*
%TO.P,U2,25,IO26*%
%TO.N,Net-(A2-Pad11)*%
X169080000Y-114473000D03*
%TO.P,U2,26,GND*%
%TO.N,GND*%
X170580000Y-114473000D03*
D23*
%TO.P,U2,27,IO33*%
%TO.N,Net-(A2-Pad10)*%
X172455000Y-113823000D03*
%TO.P,U2,28,IO34*%
%TO.N,Net-(A2-Pad16)*%
X172455000Y-112323000D03*
%TO.P,U2,29,IO35*%
%TO.N,Net-(A2-Pad15)*%
X172455000Y-110823000D03*
%TO.P,U2,30,IO36*%
%TO.N,Net-(A2-Pad9)*%
X172455000Y-109323000D03*
%TO.P,U2,31,IO37*%
%TO.N,Net-(A1-Pad16)*%
X172455000Y-107823000D03*
%TO.P,U2,32,IO38*%
%TO.N,Net-(A1-Pad12)*%
X172455000Y-106323000D03*
%TO.P,U2,33,IO39*%
%TO.N,Net-(A1-Pad11)*%
X172455000Y-104823000D03*
%TO.P,U2,34,IO40*%
%TO.N,Net-(A1-Pad10)*%
X172455000Y-103323000D03*
%TO.P,U2,35,IO41*%
%TO.N,unconnected-(U2-Pad35)*%
X172455000Y-101823000D03*
%TO.P,U2,36,IO42*%
%TO.N,Net-(A1-Pad15)*%
X172455000Y-100323000D03*
%TO.P,U2,37,TXD0*%
%TO.N,TX*%
X172455000Y-98823000D03*
%TO.P,U2,38,RXD0*%
%TO.N,RX*%
X172455000Y-97323000D03*
%TO.P,U2,39,IO45*%
%TO.N,Net-(A1-Pad9)*%
X172455000Y-95823000D03*
%TO.P,U2,40,IO46*%
%TO.N,N/C*%
X172455000Y-94223000D03*
%TO.P,U2,41,EN*%
%TO.N,Net-(C3-Pad1)*%
X172455000Y-92723000D03*
%TO.P,U2,42,GND*%
%TO.N,GND*%
X172455000Y-91323000D03*
D25*
%TO.P,U2,43,GND*%
X162640000Y-99263000D03*
%TD*%
D26*
%TO.P,D2,1,K*%
%TO.N,GND*%
X147066000Y-128463500D03*
%TO.P,D2,2,A*%
%TO.N,Net-(D2-Pad2)*%
X147066000Y-122488500D03*
%TD*%
D27*
%TO.P,J1,1*%
%TO.N,+12V*%
X90170000Y-99822000D03*
D28*
%TO.P,J1,2*%
%TO.N,GND*%
X84170000Y-99822000D03*
D29*
%TO.P,J1,MP*%
%TO.N,N/C*%
X83170000Y-95322000D03*
X83170000Y-104322000D03*
%TD*%
D30*
%TO.P,L1,1,1*%
%TO.N,Net-(D1-Pad1)*%
X123952000Y-105672000D03*
D31*
%TO.P,L1,2,2*%
%TO.N,+3.3V*%
X123952000Y-103132000D03*
%TD*%
D15*
%TO.P,A2,1,GND*%
%TO.N,GND*%
X216398000Y-104648000D03*
D16*
%TO.P,A2,2,VDD*%
%TO.N,+3.3V*%
X216398000Y-102108000D03*
%TO.P,A2,3,1B*%
%TO.N,Net-(A2-Pad3)*%
X216398000Y-99568000D03*
%TO.P,A2,4,1A*%
%TO.N,Net-(A2-Pad4)*%
X216398000Y-97028000D03*
%TO.P,A2,5,2A*%
%TO.N,Net-(A2-Pad5)*%
X216398000Y-94488000D03*
%TO.P,A2,6,2B*%
%TO.N,Net-(A2-Pad6)*%
X216398000Y-91948000D03*
%TO.P,A2,7,GND*%
%TO.N,GND*%
X216398000Y-89408000D03*
%TO.P,A2,8,VMOT*%
%TO.N,+12V*%
X216398000Y-86868000D03*
%TO.P,A2,9,~{ENABLE}*%
%TO.N,Net-(A2-Pad9)*%
X203698000Y-86868000D03*
%TO.P,A2,10,MS1*%
%TO.N,Net-(A2-Pad10)*%
X203698000Y-89408000D03*
%TO.P,A2,11,MS2*%
%TO.N,Net-(A2-Pad11)*%
X203698000Y-91948000D03*
%TO.P,A2,12,MS3*%
%TO.N,Net-(A2-Pad12)*%
X203698000Y-94488000D03*
%TO.P,A2,13,~{RESET}*%
%TO.N,Net-(A2-Pad13)*%
X203698000Y-97028000D03*
%TO.P,A2,14,~{SLEEP}*%
X203698000Y-99568000D03*
%TO.P,A2,15,STEP*%
%TO.N,Net-(A2-Pad15)*%
X203698000Y-102108000D03*
%TO.P,A2,16,DIR*%
%TO.N,Net-(A2-Pad16)*%
X203698000Y-104648000D03*
%TD*%
D11*
%TO.P,J4,1,Pin_1*%
%TO.N,Net-(J4-Pad1)*%
X226622000Y-79482000D03*
D12*
%TO.P,J4,2,Pin_2*%
%TO.N,GND*%
X226622000Y-80752000D03*
%TD*%
D32*
%TO.P,C1,1*%
%TO.N,+3.3V*%
X152654000Y-92515500D03*
%TO.P,C1,2*%
%TO.N,GND*%
X152654000Y-91380500D03*
%TD*%
D33*
%TO.P,G1,16,3V3*%
%TO.N,+3.3V*%
X129974000Y-93728500D03*
%TO.P,G1,15,IO16/PSRAM_CS*%
%TO.N,unconnected-(G1-Pad15)*%
X127434000Y-93728500D03*
%TO.P,G1,14,IO0/CSI_MCLK*%
%TO.N,unconnected-(G1-Pad14)*%
X124894000Y-93728500D03*
%TO.P,G1,13*%
%TO.N,N/C*%
X122354000Y-93728500D03*
%TO.P,G1,12,VCC*%
%TO.N,unconnected-(G1-Pad12)*%
X119814000Y-93728500D03*
%TO.P,G1,11,IO3/U0RXD*%
%TO.N,RX*%
X117274000Y-93728500D03*
%TO.P,G1,10,IO1/U0TXD*%
%TO.N,TX*%
X114734000Y-93728500D03*
%TO.P,G1,9*%
%TO.N,N/C*%
X112194000Y-93728500D03*
%TO.P,G1,8,HS2_D1/IO4*%
%TO.N,unconnected-(G1-Pad8)*%
X112194000Y-70868500D03*
%TO.P,G1,7,HS2_D0/IO2*%
%TO.N,unconnected-(G1-Pad7)*%
X114734000Y-70868500D03*
%TO.P,G1,6,HS2_CLK/IO14*%
%TO.N,unconnected-(G1-Pad6)*%
X117274000Y-70868500D03*
%TO.P,G1,5,HS2_CMD/IO15*%
%TO.N,unconnected-(G1-Pad5)*%
X119814000Y-70868500D03*
%TO.P,G1,4,HS2_D3/IO13*%
%TO.N,unconnected-(G1-Pad4)*%
X122354000Y-70868500D03*
%TO.P,G1,3,HS2_D2/IO12*%
%TO.N,unconnected-(G1-Pad3)*%
X124894000Y-70868500D03*
%TO.P,G1,2,GND*%
%TO.N,GND*%
X127434000Y-70868500D03*
D34*
%TO.P,G1,1,5V*%
%TO.N,unconnected-(G1-Pad1)*%
X129974000Y-70868500D03*
%TD*%
D35*
%TO.P,D1,1,K*%
%TO.N,Net-(D1-Pad1)*%
X123952000Y-112803000D03*
%TO.P,D1,2,A*%
%TO.N,GND*%
X123952000Y-119353000D03*
%TD*%
D36*
%TO.N,Net-(A1-Pad11)*%
X176022000Y-106426000D03*
X181864000Y-115062000D03*
%TO.N,Net-(A1-Pad10)*%
X176784000Y-105156000D03*
X186436000Y-113538000D03*
%TO.N,Net-(A1-Pad9)*%
X194056000Y-106680000D03*
X174752000Y-95758000D03*
X190754000Y-103886000D03*
X198374000Y-110998000D03*
%TO.N,Net-(A1-Pad12)*%
X175768000Y-107950000D03*
X180594000Y-118618000D03*
%TO.N,Net-(A2-Pad9)*%
X182880000Y-109220000D03*
X197612000Y-92964000D03*
%TO.N,Net-(A1-Pad15)*%
X161036000Y-119888000D03*
X163068000Y-110744000D03*
%TO.N,Net-(A1-Pad16)*%
X163830000Y-112014000D03*
X162560000Y-124714000D03*
%TO.N,+3.3V*%
X151384000Y-104648000D03*
X174752000Y-102870000D03*
%TO.N,Net-(A2-Pad11)*%
X188214000Y-116078000D03*
X203454000Y-107188000D03*
%TO.N,Net-(A2-Pad12)*%
X200152000Y-100584000D03*
X184658000Y-117094000D03*
%TO.N,IO16*%
X160020000Y-129540000D03*
%TO.N,GND*%
X187198000Y-92710000D03*
X183388000Y-101092000D03*
%TO.N,Net-(A2-Pad16)*%
X174244000Y-112268000D03*
%TO.N,GND*%
X157480000Y-91440000D03*
D37*
X100330000Y-110490000D03*
X213922000Y-104770000D03*
D36*
X159766000Y-99060000D03*
D37*
X147066000Y-130556000D03*
D36*
X151130000Y-93726000D03*
D37*
X86106000Y-99822000D03*
X219764000Y-128900000D03*
D36*
X127254000Y-72898000D03*
D37*
X123952000Y-121920000D03*
X135636000Y-113538000D03*
X219256000Y-89530000D03*
X218748000Y-113660000D03*
X109982000Y-100838000D03*
D36*
X169926000Y-112776000D03*
X170434000Y-91694000D03*
D37*
X226622000Y-82926000D03*
%TO.N,+3.3V*%
X219764000Y-125598000D03*
X219510000Y-108072000D03*
%TO.N,+12V*%
X219256000Y-86736000D03*
X93472000Y-98552000D03*
X218748000Y-111120000D03*
D38*
%TO.N,Net-(A2-Pad16)*%
X201222000Y-104770000D03*
D36*
%TO.N,TX*%
X115570000Y-99314000D03*
X167386000Y-102616000D03*
%TO.N,RX*%
X117856000Y-97790000D03*
X166116000Y-100330000D03*
D38*
%TO.N,IO16*%
X217224000Y-82926000D03*
%TD*%
D39*
%TO.N,+3.3V*%
X135636000Y-103013000D02*
X137668000Y-100981000D01*
X137668000Y-100981000D02*
X137668000Y-68072000D01*
X137668000Y-68072000D02*
X139700000Y-66040000D01*
X139700000Y-66040000D02*
X194818000Y-66040000D01*
X194818000Y-66040000D02*
X198374000Y-69596000D01*
X198374000Y-69596000D02*
X198374000Y-76200000D01*
X198374000Y-76200000D02*
X201544000Y-79370000D01*
X201544000Y-79370000D02*
X202926000Y-79370000D01*
D40*
%TO.N,Net-(A1-Pad11)*%
X174571000Y-105737000D02*
X175260000Y-106426000D01*
X173669000Y-105737000D02*
X174571000Y-105737000D01*
X172755000Y-104823000D02*
X173669000Y-105737000D01*
X175260000Y-106426000D02*
X176022000Y-106426000D01*
X172455000Y-104823000D02*
X172755000Y-104823000D01*
D39*
X192608000Y-116154000D02*
X191516000Y-115062000D01*
X191516000Y-115062000D02*
X181864000Y-115062000D01*
X203698000Y-116154000D02*
X192608000Y-116154000D01*
%TO.N,Net-(A1-Pad10)*%
X176784000Y-105156000D02*
X175006000Y-105156000D01*
X175006000Y-105156000D02*
X173173000Y-103323000D01*
X173173000Y-103323000D02*
X172455000Y-103323000D01*
X203698000Y-113614000D02*
X186512000Y-113614000D01*
X186512000Y-113614000D02*
X186436000Y-113538000D01*
%TO.N,Net-(A1-Pad9)*%
X172520000Y-95758000D02*
X172455000Y-95823000D01*
X193548000Y-106680000D02*
X190754000Y-103886000D01*
X194056000Y-106680000D02*
X193548000Y-106680000D01*
X174752000Y-95758000D02*
X172520000Y-95758000D01*
X198450000Y-111074000D02*
X198374000Y-110998000D01*
X203698000Y-111074000D02*
X198450000Y-111074000D01*
%TO.N,Net-(A2-Pad9)*%
X182880000Y-109220000D02*
X172558000Y-109220000D01*
X172558000Y-109220000D02*
X172455000Y-109323000D01*
%TO.N,Net-(A1-Pad12)*%
X203698000Y-118694000D02*
X180670000Y-118694000D01*
X174141000Y-106323000D02*
X172455000Y-106323000D01*
X180670000Y-118694000D02*
X180594000Y-118618000D01*
X175768000Y-107950000D02*
X174141000Y-106323000D01*
D40*
%TO.N,Net-(A2-Pad12)*%
X184658000Y-117094000D02*
X169901000Y-117094000D01*
X169901000Y-117094000D02*
X167580000Y-114773000D01*
X167580000Y-114773000D02*
X167580000Y-114473000D01*
D39*
%TO.N,Net-(A2-Pad9)*%
X203698000Y-86868000D02*
X197612000Y-92954000D01*
X197612000Y-92954000D02*
X197612000Y-92964000D01*
%TO.N,Net-(A1-Pad15)*%
X163068000Y-110744000D02*
X163068000Y-110490000D01*
X163068000Y-110490000D02*
X171251000Y-102307000D01*
X171251000Y-102307000D02*
X171251000Y-100919000D01*
X171251000Y-100919000D02*
X171847000Y-100323000D01*
X171847000Y-100323000D02*
X172455000Y-100323000D01*
D40*
%TO.N,TX*%
X167386000Y-102616000D02*
X171179000Y-98823000D01*
X171179000Y-98823000D02*
X172455000Y-98823000D01*
%TO.N,RX*%
X167894000Y-100330000D02*
X170901000Y-97323000D01*
X170901000Y-97323000D02*
X172455000Y-97323000D01*
X166116000Y-100330000D02*
X167894000Y-100330000D01*
D39*
%TO.N,Net-(A1-Pad15)*%
X167462000Y-126314000D02*
X161036000Y-119888000D01*
X203698000Y-126314000D02*
X167462000Y-126314000D01*
%TO.N,Net-(A1-Pad16)*%
X163830000Y-112014000D02*
X168021000Y-107823000D01*
X164414000Y-128854000D02*
X162560000Y-127000000D01*
X203698000Y-128854000D02*
X164414000Y-128854000D01*
X162560000Y-127000000D02*
X162560000Y-124714000D01*
X168021000Y-107823000D02*
X172455000Y-107823000D01*
%TO.N,+3.3V*%
X174932000Y-102690000D02*
X174752000Y-102870000D01*
X178562000Y-102690000D02*
X174932000Y-102690000D01*
X151384000Y-104648000D02*
X151384000Y-104394000D01*
X151384000Y-104394000D02*
X149860000Y-102870000D01*
D41*
%TO.N,Net-(A2-Pad15)*%
X203698000Y-102108000D02*
X191262000Y-102108000D01*
X191262000Y-102108000D02*
X182547000Y-110823000D01*
X182547000Y-110823000D02*
X172455000Y-110823000D01*
D40*
%TO.N,Net-(A2-Pad11)*%
X188214000Y-116078000D02*
X170385000Y-116078000D01*
X170385000Y-116078000D02*
X169080000Y-114773000D01*
X169080000Y-114773000D02*
X169080000Y-114473000D01*
X203698000Y-91948000D02*
X205994000Y-94244000D01*
X205994000Y-94244000D02*
X205994000Y-106426000D01*
X205232000Y-107188000D02*
X203454000Y-107188000D01*
X205994000Y-106426000D02*
X205232000Y-107188000D01*
%TO.N,Net-(A2-Pad12)*%
X200836000Y-94488000D02*
X203698000Y-94488000D01*
X200152000Y-100584000D02*
X200152000Y-95172000D01*
X200152000Y-95172000D02*
X200836000Y-94488000D01*
D41*
%TO.N,IO16*%
X160020000Y-129540000D02*
X160080000Y-129480000D01*
X160080000Y-129480000D02*
X160080000Y-114473000D01*
D39*
%TO.N,+3.3V*%
X202926000Y-79370000D02*
X210058000Y-86502000D01*
X210058000Y-86502000D02*
X210058000Y-95768000D01*
X210058000Y-95768000D02*
X216398000Y-102108000D01*
D40*
%TO.N,Net-(A2-Pad10)*%
X203698000Y-89408000D02*
X207264000Y-92974000D01*
X207264000Y-106680000D02*
X205486000Y-108458000D01*
X207264000Y-92974000D02*
X207264000Y-106680000D01*
X184373000Y-113823000D02*
X172455000Y-113823000D01*
X205486000Y-108458000D02*
X189738000Y-108458000D01*
X189738000Y-108458000D02*
X184373000Y-113823000D01*
%TO.N,Net-(C3-Pad1)*%
X172455000Y-92723000D02*
X178395000Y-92723000D01*
X178395000Y-92723000D02*
X178562000Y-92890000D01*
%TO.N,GND*%
X185479500Y-92710000D02*
X187198000Y-92710000D01*
X184328000Y-100152000D02*
X183388000Y-101092000D01*
X184328000Y-99314000D02*
X184328000Y-100152000D01*
%TO.N,Net-(C3-Pad1)*%
X184344500Y-92710000D02*
X178742000Y-92710000D01*
X178742000Y-92710000D02*
X178562000Y-92890000D01*
X184328000Y-94814000D02*
X184328000Y-92726500D01*
X184328000Y-92726500D02*
X184344500Y-92710000D01*
%TO.N,GND*%
X192278000Y-99314000D02*
X184328000Y-99314000D01*
%TO.N,Net-(C3-Pad1)*%
X184328000Y-94814000D02*
X192278000Y-94814000D01*
D41*
%TO.N,Net-(A2-Pad16)*%
X174244000Y-112268000D02*
X172510000Y-112268000D01*
X172510000Y-112268000D02*
X172455000Y-112323000D01*
D40*
%TO.N,GND*%
X157263000Y-91223000D02*
X157480000Y-91440000D01*
X155205000Y-91223000D02*
X157263000Y-91223000D01*
D39*
X127434000Y-72718000D02*
X127254000Y-72898000D01*
D40*
X151578500Y-94992000D02*
X151578500Y-94174500D01*
X170805000Y-91323000D02*
X170434000Y-91694000D01*
D39*
X86106000Y-99822000D02*
X84170000Y-99822000D01*
X219764000Y-128900000D02*
X216444000Y-128900000D01*
X216444000Y-128900000D02*
X216398000Y-128854000D01*
X216276000Y-104770000D02*
X216398000Y-104648000D01*
D40*
X170580000Y-114473000D02*
X170580000Y-113430000D01*
X152654000Y-91380500D02*
X152811500Y-91223000D01*
D39*
X159969000Y-99263000D02*
X159766000Y-99060000D01*
D40*
X135636000Y-113538000D02*
X135636000Y-111363000D01*
X152811500Y-91223000D02*
X155205000Y-91223000D01*
D39*
X109982000Y-100838000D02*
X109982000Y-103124000D01*
D40*
X170580000Y-113430000D02*
X169926000Y-112776000D01*
D39*
X213922000Y-104770000D02*
X216276000Y-104770000D01*
D40*
X172455000Y-91323000D02*
X170805000Y-91323000D01*
D39*
X216520000Y-89530000D02*
X216398000Y-89408000D01*
X162640000Y-99263000D02*
X159969000Y-99263000D01*
X218748000Y-113660000D02*
X216444000Y-113660000D01*
X100330000Y-110490000D02*
X100330000Y-108315000D01*
X219256000Y-89530000D02*
X216520000Y-89530000D01*
X147066000Y-128463500D02*
X147066000Y-130556000D01*
X109982000Y-105664000D02*
X109982000Y-103124000D01*
D40*
X226622000Y-82926000D02*
X226622000Y-80752000D01*
D39*
X127434000Y-70868500D02*
X127434000Y-72718000D01*
D40*
X151578500Y-94174500D02*
X151130000Y-93726000D01*
X123952000Y-121920000D02*
X123952000Y-119353000D01*
D39*
X216444000Y-113660000D02*
X216398000Y-113614000D01*
D40*
%TO.N,+3.3V*%
X152654000Y-92515500D02*
X152861500Y-92723000D01*
D39*
X135636000Y-103013000D02*
X129974000Y-97351000D01*
X135517000Y-103132000D02*
X123952000Y-103132000D01*
D40*
X147066000Y-103124000D02*
X146955000Y-103013000D01*
D39*
X219510000Y-105220000D02*
X216398000Y-102108000D01*
X219764000Y-125598000D02*
X217114000Y-125598000D01*
X123944000Y-103124000D02*
X123952000Y-103132000D01*
D40*
X152713500Y-99254500D02*
X149860000Y-102108000D01*
D39*
X117602000Y-103124000D02*
X123944000Y-103124000D01*
D40*
X152861500Y-92723000D02*
X155205000Y-92723000D01*
D39*
X219510000Y-108072000D02*
X219510000Y-105220000D01*
X217114000Y-125598000D02*
X216398000Y-126314000D01*
X135636000Y-103013000D02*
X135517000Y-103132000D01*
D40*
X152654000Y-94932500D02*
X152713500Y-94992000D01*
X152654000Y-92515500D02*
X152654000Y-94932500D01*
D39*
X146955000Y-103013000D02*
X149717000Y-103013000D01*
X135636000Y-103013000D02*
X146955000Y-103013000D01*
X149717000Y-103013000D02*
X149860000Y-102870000D01*
D40*
X147066000Y-109400000D02*
X147066000Y-103124000D01*
X152713500Y-94992000D02*
X152713500Y-99254500D01*
D39*
X129974000Y-97351000D02*
X129974000Y-93728500D01*
D40*
X149860000Y-102108000D02*
X149860000Y-102870000D01*
D39*
%TO.N,Net-(A1-Pad3)*%
X216398000Y-123774000D02*
X225398000Y-123774000D01*
X225398000Y-123774000D02*
X226622000Y-122550000D01*
%TO.N,Net-(A1-Pad4)*%
X216398000Y-121234000D02*
X226576000Y-121234000D01*
X226576000Y-121234000D02*
X226622000Y-121280000D01*
%TO.N,Net-(A1-Pad5)*%
X223274000Y-118694000D02*
X224590000Y-120010000D01*
X216398000Y-118694000D02*
X223274000Y-118694000D01*
X224590000Y-120010000D02*
X226622000Y-120010000D01*
%TO.N,Net-(A1-Pad6)*%
X224036000Y-116154000D02*
X226622000Y-118740000D01*
X216398000Y-116154000D02*
X224036000Y-116154000D01*
%TO.N,+12V*%
X93472000Y-99822000D02*
X100187000Y-99822000D01*
X104791000Y-99965000D02*
X107442000Y-102616000D01*
X100187000Y-99822000D02*
X100330000Y-99965000D01*
X216530000Y-86736000D02*
X216398000Y-86868000D01*
X100330000Y-99965000D02*
X104791000Y-99965000D01*
X90170000Y-99822000D02*
X93472000Y-99822000D01*
X216444000Y-111120000D02*
X216398000Y-111074000D01*
X218748000Y-111120000D02*
X216444000Y-111120000D01*
X219256000Y-86736000D02*
X216530000Y-86736000D01*
X93472000Y-98552000D02*
X93472000Y-99822000D01*
X107442000Y-105664000D02*
X109982000Y-108204000D01*
X107442000Y-102616000D02*
X107442000Y-105664000D01*
%TO.N,Net-(A1-Pad13)*%
X203698000Y-121234000D02*
X203698000Y-123774000D01*
%TO.N,Net-(A2-Pad3)*%
X216398000Y-99568000D02*
X226490000Y-99568000D01*
X226490000Y-99568000D02*
X226622000Y-99436000D01*
%TO.N,Net-(A2-Pad4)*%
X221796000Y-98166000D02*
X226622000Y-98166000D01*
X216398000Y-97028000D02*
X220658000Y-97028000D01*
X220658000Y-97028000D02*
X221796000Y-98166000D01*
%TO.N,Net-(A2-Pad5)*%
X216398000Y-94488000D02*
X220658000Y-94488000D01*
X220658000Y-94488000D02*
X223066000Y-96896000D01*
X223066000Y-96896000D02*
X226622000Y-96896000D01*
%TO.N,Net-(A2-Pad6)*%
X222944000Y-91948000D02*
X226622000Y-95626000D01*
X216398000Y-91948000D02*
X222944000Y-91948000D01*
%TO.N,Net-(A2-Pad13)*%
X203698000Y-99568000D02*
X203698000Y-97028000D01*
D41*
%TO.N,Net-(A2-Pad16)*%
X201344000Y-104648000D02*
X201222000Y-104770000D01*
X203698000Y-104648000D02*
X201344000Y-104648000D01*
D39*
%TO.N,Net-(D1-Pad1)*%
X123952000Y-105672000D02*
X123952000Y-112803000D01*
X112041000Y-112803000D02*
X123952000Y-112803000D01*
X109982000Y-110744000D02*
X112041000Y-112803000D01*
D40*
%TO.N,TX*%
X114734000Y-98478000D02*
X115570000Y-99314000D01*
X114734000Y-93728500D02*
X114734000Y-98478000D01*
%TO.N,RX*%
X117274000Y-97208000D02*
X117856000Y-97790000D01*
X117274000Y-93728500D02*
X117274000Y-97208000D01*
D39*
%TO.N,Net-(J4-Pad1)*%
X226510000Y-79370000D02*
X226622000Y-79482000D01*
X221542000Y-79370000D02*
X226510000Y-79370000D01*
D41*
%TO.N,IO16*%
X217224000Y-82926000D02*
X220272000Y-79878000D01*
X220272000Y-79878000D02*
X220272000Y-79370000D01*
D39*
%TO.N,Net-(Q1-Pad3)*%
X219002000Y-79370000D02*
X212726000Y-79370000D01*
%TO.N,Net-(D2-Pad2)*%
X147066000Y-119200000D02*
X147066000Y-122488500D01*
%TD*%
M02*
