%TF.GenerationSoftware,KiCad,Pcbnew,(6.0.11-0)*%
%TF.CreationDate,2024-05-25T22:05:18+02:00*%
%TF.ProjectId,The Mechanical Turk,54686520-4d65-4636-9861-6e6963616c20,rev?*%
%TF.SameCoordinates,Original*%
%TF.FileFunction,Legend,Top*%
%TF.FilePolarity,Positive*%
%FSLAX46Y46*%
G04 Gerber Fmt 4.6, Leading zero omitted, Abs format (unit mm)*
G04 Created by KiCad (PCBNEW (6.0.11-0)) date 2024-05-25 22:05:18*
%MOMM*%
%LPD*%
G01*
G04 APERTURE LIST*
%ADD10C,0.150000*%
%ADD11C,0.120000*%
G04 APERTURE END LIST*
D10*
%TO.C,C3*%
X183729333Y-91797142D02*
X183681714Y-91844761D01*
X183538857Y-91892380D01*
X183443619Y-91892380D01*
X183300761Y-91844761D01*
X183205523Y-91749523D01*
X183157904Y-91654285D01*
X183110285Y-91463809D01*
X183110285Y-91320952D01*
X183157904Y-91130476D01*
X183205523Y-91035238D01*
X183300761Y-90940000D01*
X183443619Y-90892380D01*
X183538857Y-90892380D01*
X183681714Y-90940000D01*
X183729333Y-90987619D01*
X184062666Y-90892380D02*
X184681714Y-90892380D01*
X184348380Y-91273333D01*
X184491238Y-91273333D01*
X184586476Y-91320952D01*
X184634095Y-91368571D01*
X184681714Y-91463809D01*
X184681714Y-91701904D01*
X184634095Y-91797142D01*
X184586476Y-91844761D01*
X184491238Y-91892380D01*
X184205523Y-91892380D01*
X184110285Y-91844761D01*
X184062666Y-91797142D01*
%TO.C,J2*%
X226288666Y-123697380D02*
X226288666Y-124411666D01*
X226241047Y-124554523D01*
X226145809Y-124649761D01*
X226002952Y-124697380D01*
X225907714Y-124697380D01*
X226717238Y-123792619D02*
X226764857Y-123745000D01*
X226860095Y-123697380D01*
X227098190Y-123697380D01*
X227193428Y-123745000D01*
X227241047Y-123792619D01*
X227288666Y-123887857D01*
X227288666Y-123983095D01*
X227241047Y-124125952D01*
X226669619Y-124697380D01*
X227288666Y-124697380D01*
%TO.C,R4*%
X151328380Y-116498666D02*
X150852190Y-116832000D01*
X151328380Y-117070095D02*
X150328380Y-117070095D01*
X150328380Y-116689142D01*
X150376000Y-116593904D01*
X150423619Y-116546285D01*
X150518857Y-116498666D01*
X150661714Y-116498666D01*
X150756952Y-116546285D01*
X150804571Y-116593904D01*
X150852190Y-116689142D01*
X150852190Y-117070095D01*
X150661714Y-115641523D02*
X151328380Y-115641523D01*
X150280761Y-115879619D02*
X150995047Y-116117714D01*
X150995047Y-115498666D01*
%TO.C,J3*%
X226288666Y-100583380D02*
X226288666Y-101297666D01*
X226241047Y-101440523D01*
X226145809Y-101535761D01*
X226002952Y-101583380D01*
X225907714Y-101583380D01*
X226669619Y-100583380D02*
X227288666Y-100583380D01*
X226955333Y-100964333D01*
X227098190Y-100964333D01*
X227193428Y-101011952D01*
X227241047Y-101059571D01*
X227288666Y-101154809D01*
X227288666Y-101392904D01*
X227241047Y-101488142D01*
X227193428Y-101535761D01*
X227098190Y-101583380D01*
X226812476Y-101583380D01*
X226717238Y-101535761D01*
X226669619Y-101488142D01*
%TO.C,C2*%
X145121333Y-95349142D02*
X145073714Y-95396761D01*
X144930857Y-95444380D01*
X144835619Y-95444380D01*
X144692761Y-95396761D01*
X144597523Y-95301523D01*
X144549904Y-95206285D01*
X144502285Y-95015809D01*
X144502285Y-94872952D01*
X144549904Y-94682476D01*
X144597523Y-94587238D01*
X144692761Y-94492000D01*
X144835619Y-94444380D01*
X144930857Y-94444380D01*
X145073714Y-94492000D01*
X145121333Y-94539619D01*
X145502285Y-94539619D02*
X145549904Y-94492000D01*
X145645142Y-94444380D01*
X145883238Y-94444380D01*
X145978476Y-94492000D01*
X146026095Y-94539619D01*
X146073714Y-94634857D01*
X146073714Y-94730095D01*
X146026095Y-94872952D01*
X145454666Y-95444380D01*
X146073714Y-95444380D01*
%TO.C,A1*%
X209333714Y-131560666D02*
X209809904Y-131560666D01*
X209238476Y-131846380D02*
X209571809Y-130846380D01*
X209905142Y-131846380D01*
X210762285Y-131846380D02*
X210190857Y-131846380D01*
X210476571Y-131846380D02*
X210476571Y-130846380D01*
X210381333Y-130989238D01*
X210286095Y-131084476D01*
X210190857Y-131132095D01*
%TO.C,Q1*%
X220176761Y-83477619D02*
X220081523Y-83430000D01*
X219986285Y-83334761D01*
X219843428Y-83191904D01*
X219748190Y-83144285D01*
X219652952Y-83144285D01*
X219700571Y-83382380D02*
X219605333Y-83334761D01*
X219510095Y-83239523D01*
X219462476Y-83049047D01*
X219462476Y-82715714D01*
X219510095Y-82525238D01*
X219605333Y-82430000D01*
X219700571Y-82382380D01*
X219891047Y-82382380D01*
X219986285Y-82430000D01*
X220081523Y-82525238D01*
X220129142Y-82715714D01*
X220129142Y-83049047D01*
X220081523Y-83239523D01*
X219986285Y-83334761D01*
X219891047Y-83382380D01*
X219700571Y-83382380D01*
X221081523Y-83382380D02*
X220510095Y-83382380D01*
X220795809Y-83382380D02*
X220795809Y-82382380D01*
X220700571Y-82525238D01*
X220605333Y-82620476D01*
X220510095Y-82668095D01*
%TO.C,U1*%
X113030095Y-112526380D02*
X113030095Y-113335904D01*
X113077714Y-113431142D01*
X113125333Y-113478761D01*
X113220571Y-113526380D01*
X113411047Y-113526380D01*
X113506285Y-113478761D01*
X113553904Y-113431142D01*
X113601523Y-113335904D01*
X113601523Y-112526380D01*
X114601523Y-113526380D02*
X114030095Y-113526380D01*
X114315809Y-113526380D02*
X114315809Y-112526380D01*
X114220571Y-112669238D01*
X114125333Y-112764476D01*
X114030095Y-112812095D01*
%TO.C,CIN1*%
X106867142Y-105068571D02*
X106914761Y-105116190D01*
X106962380Y-105259047D01*
X106962380Y-105354285D01*
X106914761Y-105497142D01*
X106819523Y-105592380D01*
X106724285Y-105640000D01*
X106533809Y-105687619D01*
X106390952Y-105687619D01*
X106200476Y-105640000D01*
X106105238Y-105592380D01*
X106010000Y-105497142D01*
X105962380Y-105354285D01*
X105962380Y-105259047D01*
X106010000Y-105116190D01*
X106057619Y-105068571D01*
X106962380Y-104640000D02*
X105962380Y-104640000D01*
X106962380Y-104163809D02*
X105962380Y-104163809D01*
X106962380Y-103592380D01*
X105962380Y-103592380D01*
X106962380Y-102592380D02*
X106962380Y-103163809D01*
X106962380Y-102878095D02*
X105962380Y-102878095D01*
X106105238Y-102973333D01*
X106200476Y-103068571D01*
X106248095Y-103163809D01*
%TO.C,COUT1*%
X142173142Y-108783238D02*
X142220761Y-108830857D01*
X142268380Y-108973714D01*
X142268380Y-109068952D01*
X142220761Y-109211809D01*
X142125523Y-109307047D01*
X142030285Y-109354666D01*
X141839809Y-109402285D01*
X141696952Y-109402285D01*
X141506476Y-109354666D01*
X141411238Y-109307047D01*
X141316000Y-109211809D01*
X141268380Y-109068952D01*
X141268380Y-108973714D01*
X141316000Y-108830857D01*
X141363619Y-108783238D01*
X141268380Y-108164190D02*
X141268380Y-107973714D01*
X141316000Y-107878476D01*
X141411238Y-107783238D01*
X141601714Y-107735619D01*
X141935047Y-107735619D01*
X142125523Y-107783238D01*
X142220761Y-107878476D01*
X142268380Y-107973714D01*
X142268380Y-108164190D01*
X142220761Y-108259428D01*
X142125523Y-108354666D01*
X141935047Y-108402285D01*
X141601714Y-108402285D01*
X141411238Y-108354666D01*
X141316000Y-108259428D01*
X141268380Y-108164190D01*
X141268380Y-107307047D02*
X142077904Y-107307047D01*
X142173142Y-107259428D01*
X142220761Y-107211809D01*
X142268380Y-107116571D01*
X142268380Y-106926095D01*
X142220761Y-106830857D01*
X142173142Y-106783238D01*
X142077904Y-106735619D01*
X141268380Y-106735619D01*
X141268380Y-106402285D02*
X141268380Y-105830857D01*
X142268380Y-106116571D02*
X141268380Y-106116571D01*
X142268380Y-104973714D02*
X142268380Y-105545142D01*
X142268380Y-105259428D02*
X141268380Y-105259428D01*
X141411238Y-105354666D01*
X141506476Y-105449904D01*
X141554095Y-105545142D01*
%TO.C,R2*%
X207659333Y-76222380D02*
X207326000Y-75746190D01*
X207087904Y-76222380D02*
X207087904Y-75222380D01*
X207468857Y-75222380D01*
X207564095Y-75270000D01*
X207611714Y-75317619D01*
X207659333Y-75412857D01*
X207659333Y-75555714D01*
X207611714Y-75650952D01*
X207564095Y-75698571D01*
X207468857Y-75746190D01*
X207087904Y-75746190D01*
X208040285Y-75317619D02*
X208087904Y-75270000D01*
X208183142Y-75222380D01*
X208421238Y-75222380D01*
X208516476Y-75270000D01*
X208564095Y-75317619D01*
X208611714Y-75412857D01*
X208611714Y-75508095D01*
X208564095Y-75650952D01*
X207992666Y-76222380D01*
X208611714Y-76222380D01*
%TO.C,H4*%
X222504095Y-132380380D02*
X222504095Y-131380380D01*
X222504095Y-131856571D02*
X223075523Y-131856571D01*
X223075523Y-132380380D02*
X223075523Y-131380380D01*
X223980285Y-131713714D02*
X223980285Y-132380380D01*
X223742190Y-131332761D02*
X223504095Y-132047047D01*
X224123142Y-132047047D01*
%TO.C,R1*%
X182824380Y-99480666D02*
X182348190Y-99814000D01*
X182824380Y-100052095D02*
X181824380Y-100052095D01*
X181824380Y-99671142D01*
X181872000Y-99575904D01*
X181919619Y-99528285D01*
X182014857Y-99480666D01*
X182157714Y-99480666D01*
X182252952Y-99528285D01*
X182300571Y-99575904D01*
X182348190Y-99671142D01*
X182348190Y-100052095D01*
X182824380Y-98528285D02*
X182824380Y-99099714D01*
X182824380Y-98814000D02*
X181824380Y-98814000D01*
X181967238Y-98909238D01*
X182062476Y-99004476D01*
X182110095Y-99099714D01*
%TO.C,SW1*%
X186969666Y-101518761D02*
X187112523Y-101566380D01*
X187350619Y-101566380D01*
X187445857Y-101518761D01*
X187493476Y-101471142D01*
X187541095Y-101375904D01*
X187541095Y-101280666D01*
X187493476Y-101185428D01*
X187445857Y-101137809D01*
X187350619Y-101090190D01*
X187160142Y-101042571D01*
X187064904Y-100994952D01*
X187017285Y-100947333D01*
X186969666Y-100852095D01*
X186969666Y-100756857D01*
X187017285Y-100661619D01*
X187064904Y-100614000D01*
X187160142Y-100566380D01*
X187398238Y-100566380D01*
X187541095Y-100614000D01*
X187874428Y-100566380D02*
X188112523Y-101566380D01*
X188303000Y-100852095D01*
X188493476Y-101566380D01*
X188731571Y-100566380D01*
X189636333Y-101566380D02*
X189064904Y-101566380D01*
X189350619Y-101566380D02*
X189350619Y-100566380D01*
X189255380Y-100709238D01*
X189160142Y-100804476D01*
X189064904Y-100852095D01*
%TO.C,H1*%
X82550095Y-65324380D02*
X82550095Y-64324380D01*
X82550095Y-64800571D02*
X83121523Y-64800571D01*
X83121523Y-65324380D02*
X83121523Y-64324380D01*
X84121523Y-65324380D02*
X83550095Y-65324380D01*
X83835809Y-65324380D02*
X83835809Y-64324380D01*
X83740571Y-64467238D01*
X83645333Y-64562476D01*
X83550095Y-64610095D01*
%TO.C,U2*%
X152872380Y-114289904D02*
X153681904Y-114289904D01*
X153777142Y-114242285D01*
X153824761Y-114194666D01*
X153872380Y-114099428D01*
X153872380Y-113908952D01*
X153824761Y-113813714D01*
X153777142Y-113766095D01*
X153681904Y-113718476D01*
X152872380Y-113718476D01*
X152967619Y-113289904D02*
X152920000Y-113242285D01*
X152872380Y-113147047D01*
X152872380Y-112908952D01*
X152920000Y-112813714D01*
X152967619Y-112766095D01*
X153062857Y-112718476D01*
X153158095Y-112718476D01*
X153300952Y-112766095D01*
X153872380Y-113337523D01*
X153872380Y-112718476D01*
%TO.C,D2*%
X144898380Y-126214095D02*
X143898380Y-126214095D01*
X143898380Y-125976000D01*
X143946000Y-125833142D01*
X144041238Y-125737904D01*
X144136476Y-125690285D01*
X144326952Y-125642666D01*
X144469809Y-125642666D01*
X144660285Y-125690285D01*
X144755523Y-125737904D01*
X144850761Y-125833142D01*
X144898380Y-125976000D01*
X144898380Y-126214095D01*
X143993619Y-125261714D02*
X143946000Y-125214095D01*
X143898380Y-125118857D01*
X143898380Y-124880761D01*
X143946000Y-124785523D01*
X143993619Y-124737904D01*
X144088857Y-124690285D01*
X144184095Y-124690285D01*
X144326952Y-124737904D01*
X144898380Y-125309333D01*
X144898380Y-124690285D01*
%TO.C,J1*%
X91922380Y-100155333D02*
X92636666Y-100155333D01*
X92779523Y-100202952D01*
X92874761Y-100298190D01*
X92922380Y-100441047D01*
X92922380Y-100536285D01*
X92922380Y-99155333D02*
X92922380Y-99726761D01*
X92922380Y-99441047D02*
X91922380Y-99441047D01*
X92065238Y-99536285D01*
X92160476Y-99631523D01*
X92208095Y-99726761D01*
%TO.C,L1*%
X121284380Y-104568666D02*
X121284380Y-105044857D01*
X120284380Y-105044857D01*
X121284380Y-103711523D02*
X121284380Y-104282952D01*
X121284380Y-103997238D02*
X120284380Y-103997238D01*
X120427238Y-104092476D01*
X120522476Y-104187714D01*
X120570095Y-104282952D01*
%TO.C,H3*%
X222504095Y-65324380D02*
X222504095Y-64324380D01*
X222504095Y-64800571D02*
X223075523Y-64800571D01*
X223075523Y-65324380D02*
X223075523Y-64324380D01*
X223456476Y-64324380D02*
X224075523Y-64324380D01*
X223742190Y-64705333D01*
X223885047Y-64705333D01*
X223980285Y-64752952D01*
X224027904Y-64800571D01*
X224075523Y-64895809D01*
X224075523Y-65133904D01*
X224027904Y-65229142D01*
X223980285Y-65276761D01*
X223885047Y-65324380D01*
X223599333Y-65324380D01*
X223504095Y-65276761D01*
X223456476Y-65229142D01*
%TO.C,H2*%
X82550095Y-132380380D02*
X82550095Y-131380380D01*
X82550095Y-131856571D02*
X83121523Y-131856571D01*
X83121523Y-132380380D02*
X83121523Y-131380380D01*
X83550095Y-131475619D02*
X83597714Y-131428000D01*
X83692952Y-131380380D01*
X83931047Y-131380380D01*
X84026285Y-131428000D01*
X84073904Y-131475619D01*
X84121523Y-131570857D01*
X84121523Y-131666095D01*
X84073904Y-131808952D01*
X83502476Y-132380380D01*
X84121523Y-132380380D01*
%TO.C,A2*%
X209333714Y-107354666D02*
X209809904Y-107354666D01*
X209238476Y-107640380D02*
X209571809Y-106640380D01*
X209905142Y-107640380D01*
X210190857Y-106735619D02*
X210238476Y-106688000D01*
X210333714Y-106640380D01*
X210571809Y-106640380D01*
X210667047Y-106688000D01*
X210714666Y-106735619D01*
X210762285Y-106830857D01*
X210762285Y-106926095D01*
X210714666Y-107068952D01*
X210143238Y-107640380D01*
X210762285Y-107640380D01*
%TO.C,J4*%
X226288666Y-77239380D02*
X226288666Y-77953666D01*
X226241047Y-78096523D01*
X226145809Y-78191761D01*
X226002952Y-78239380D01*
X225907714Y-78239380D01*
X227193428Y-77572714D02*
X227193428Y-78239380D01*
X226955333Y-77191761D02*
X226717238Y-77906047D01*
X227336285Y-77906047D01*
%TO.C,C1*%
X145629333Y-92051142D02*
X145581714Y-92098761D01*
X145438857Y-92146380D01*
X145343619Y-92146380D01*
X145200761Y-92098761D01*
X145105523Y-92003523D01*
X145057904Y-91908285D01*
X145010285Y-91717809D01*
X145010285Y-91574952D01*
X145057904Y-91384476D01*
X145105523Y-91289238D01*
X145200761Y-91194000D01*
X145343619Y-91146380D01*
X145438857Y-91146380D01*
X145581714Y-91194000D01*
X145629333Y-91241619D01*
X146581714Y-92146380D02*
X146010285Y-92146380D01*
X146296000Y-92146380D02*
X146296000Y-91146380D01*
X146200761Y-91289238D01*
X146105523Y-91384476D01*
X146010285Y-91432095D01*
%TO.C,G1*%
X135316000Y-82512785D02*
X135268380Y-82608023D01*
X135268380Y-82750880D01*
X135316000Y-82893738D01*
X135411238Y-82988976D01*
X135506476Y-83036595D01*
X135696952Y-83084214D01*
X135839809Y-83084214D01*
X136030285Y-83036595D01*
X136125523Y-82988976D01*
X136220761Y-82893738D01*
X136268380Y-82750880D01*
X136268380Y-82655642D01*
X136220761Y-82512785D01*
X136173142Y-82465166D01*
X135839809Y-82465166D01*
X135839809Y-82655642D01*
X136268380Y-81512785D02*
X136268380Y-82084214D01*
X136268380Y-81798500D02*
X135268380Y-81798500D01*
X135411238Y-81893738D01*
X135506476Y-81988976D01*
X135554095Y-82084214D01*
%TO.C,D1*%
X127924380Y-116816095D02*
X126924380Y-116816095D01*
X126924380Y-116578000D01*
X126972000Y-116435142D01*
X127067238Y-116339904D01*
X127162476Y-116292285D01*
X127352952Y-116244666D01*
X127495809Y-116244666D01*
X127686285Y-116292285D01*
X127781523Y-116339904D01*
X127876761Y-116435142D01*
X127924380Y-116578000D01*
X127924380Y-116816095D01*
X127924380Y-115292285D02*
X127924380Y-115863714D01*
X127924380Y-115578000D02*
X126924380Y-115578000D01*
X127067238Y-115673238D01*
X127162476Y-115768476D01*
X127210095Y-115863714D01*
D11*
%TO.C,C3*%
X184796165Y-92350000D02*
X185027835Y-92350000D01*
X184796165Y-93070000D02*
X185027835Y-93070000D01*
%TO.C,J2*%
X227732000Y-121790000D02*
X227732000Y-118045000D01*
X227732000Y-122550000D02*
X227732000Y-123310000D01*
X227732000Y-121790000D02*
X227185471Y-121790000D01*
X225512000Y-121790000D02*
X225512000Y-118045000D01*
X227732000Y-123310000D02*
X226622000Y-123310000D01*
X226058529Y-121790000D02*
X225512000Y-121790000D01*
X226314470Y-118045000D02*
X225512000Y-118045000D01*
X227732000Y-118045000D02*
X226929530Y-118045000D01*
%TO.C,R4*%
X149726000Y-110413748D02*
X149726000Y-118186252D01*
X144406000Y-110413748D02*
X144406000Y-118186252D01*
%TO.C,J3*%
X227732000Y-94931000D02*
X226929530Y-94931000D01*
X227732000Y-98676000D02*
X227185471Y-98676000D01*
X226314470Y-94931000D02*
X225512000Y-94931000D01*
X227732000Y-98676000D02*
X227732000Y-94931000D01*
X227732000Y-100196000D02*
X226622000Y-100196000D01*
X226058529Y-98676000D02*
X225512000Y-98676000D01*
X225512000Y-98676000D02*
X225512000Y-94931000D01*
X227732000Y-99436000D02*
X227732000Y-100196000D01*
%TO.C,C2*%
X152261835Y-95352000D02*
X152030165Y-95352000D01*
X152261835Y-94632000D02*
X152030165Y-94632000D01*
%TO.C,A1*%
X202298000Y-130254000D02*
X215128000Y-130254000D01*
X215128000Y-130254000D02*
X215128000Y-127584000D01*
X216398000Y-130254000D02*
X217798000Y-130254000D01*
X217798000Y-127584000D02*
X217798000Y-109674000D01*
X202298000Y-109674000D02*
X202298000Y-130254000D01*
X217798000Y-109674000D02*
X202298000Y-109674000D01*
X204968000Y-130254000D02*
X204968000Y-109674000D01*
X215128000Y-127584000D02*
X215128000Y-109674000D01*
X215128000Y-127584000D02*
X217798000Y-127584000D01*
X217798000Y-130254000D02*
X217798000Y-128854000D01*
%TO.C,Q1*%
X222072000Y-77520000D02*
X218472000Y-77520000D01*
X220272000Y-81970001D02*
G75*
G03*
X222110478Y-77531522I0J2600001D01*
G01*
X218433522Y-77531522D02*
G75*
G03*
X220272000Y-81970000I1838478J-1838478D01*
G01*
%TO.C,U1*%
X111142000Y-101794000D02*
X111142000Y-112074000D01*
X114792000Y-112074000D02*
X116442000Y-112074000D01*
X116442000Y-112074000D02*
X116442000Y-101794000D01*
X116442000Y-101794000D02*
X111142000Y-101794000D01*
X111142000Y-112074000D02*
X112792000Y-112074000D01*
X114792000Y-112074000D02*
G75*
G03*
X112792000Y-112074000I-1000000J0D01*
G01*
%TO.C,CIN1*%
X105540000Y-101217631D02*
X105540000Y-107062369D01*
X95120000Y-101217631D02*
X95120000Y-107062369D01*
%TO.C,COUT1*%
X130426000Y-104265631D02*
X130426000Y-110110369D01*
X140846000Y-104265631D02*
X140846000Y-110110369D01*
%TO.C,R2*%
X203939748Y-82030000D02*
X211712252Y-82030000D01*
X203939748Y-76710000D02*
X211712252Y-76710000D01*
%TO.C,R1*%
X175902000Y-101676252D02*
X175902000Y-93903748D01*
X181222000Y-101676252D02*
X181222000Y-93903748D01*
%TO.C,SW1*%
X191533000Y-93834000D02*
X185073000Y-93834000D01*
X185073000Y-98364000D02*
X185073000Y-95764000D01*
X191533000Y-100264000D02*
X191533000Y-100294000D01*
X185073000Y-93834000D02*
X185073000Y-93864000D01*
X191533000Y-98364000D02*
X191533000Y-95764000D01*
X191533000Y-100294000D02*
X185073000Y-100294000D01*
X185073000Y-100294000D02*
X185073000Y-100264000D01*
X191533000Y-93834000D02*
X191533000Y-93864000D01*
%TO.C,U2*%
X154710000Y-114798000D02*
X156370000Y-114798000D01*
X154720000Y-90628000D02*
X154705000Y-83548000D01*
X172950000Y-114798000D02*
X171290000Y-114798000D01*
X154720000Y-90628000D02*
X154330000Y-90628000D01*
X172960000Y-89968000D02*
X172960000Y-83548000D01*
X172950000Y-114538000D02*
X172950000Y-114798000D01*
X154710000Y-114438000D02*
X154710000Y-114798000D01*
X154705000Y-83548000D02*
X172960000Y-83548000D01*
%TO.C,D2*%
X145131000Y-129486000D02*
X149001000Y-129486000D01*
X145131000Y-122326000D02*
X145131000Y-129486000D01*
X149001000Y-129486000D02*
X149001000Y-122326000D01*
%TO.C,J1*%
X81120000Y-104932000D02*
X78060000Y-104932000D01*
X91280000Y-104932000D02*
X85220000Y-104932000D01*
X91280000Y-94712000D02*
X91280000Y-97522000D01*
X78060000Y-104932000D02*
X78060000Y-94712000D01*
X91470000Y-98822000D02*
X91470000Y-100822000D01*
X85220000Y-94712000D02*
X91280000Y-94712000D01*
X91280000Y-102122000D02*
X91280000Y-104932000D01*
X78060000Y-94712000D02*
X81120000Y-94712000D01*
%TO.C,L1*%
X122832000Y-103872000D02*
G75*
G03*
X125072000Y-103872000I1120000J-1800000D01*
G01*
%TO.C,A2*%
X215128000Y-106048000D02*
X215128000Y-103378000D01*
X204968000Y-106048000D02*
X204968000Y-85468000D01*
X216398000Y-106048000D02*
X217798000Y-106048000D01*
X217798000Y-106048000D02*
X217798000Y-104648000D01*
X215128000Y-103378000D02*
X217798000Y-103378000D01*
X215128000Y-103378000D02*
X215128000Y-85468000D01*
X202298000Y-85468000D02*
X202298000Y-106048000D01*
X202298000Y-106048000D02*
X215128000Y-106048000D01*
X217798000Y-103378000D02*
X217798000Y-85468000D01*
X217798000Y-85468000D02*
X202298000Y-85468000D01*
%TO.C,J4*%
X225512000Y-79482000D02*
X225512000Y-78722000D01*
X227185471Y-80242000D02*
X227732000Y-80242000D01*
X227732000Y-80242000D02*
X227732000Y-81447000D01*
X225512000Y-80242000D02*
X225512000Y-81447000D01*
X225512000Y-78722000D02*
X226622000Y-78722000D01*
X226929530Y-81447000D02*
X227732000Y-81447000D01*
X225512000Y-81447000D02*
X226314470Y-81447000D01*
X225512000Y-80242000D02*
X226058529Y-80242000D01*
%TO.C,C1*%
X153014000Y-92063835D02*
X153014000Y-91832165D01*
X152294000Y-92063835D02*
X152294000Y-91832165D01*
%TO.C,G1*%
X110924000Y-72138500D02*
X113210000Y-72138500D01*
X94434000Y-68678500D02*
X94434000Y-95918500D01*
X128704000Y-92458500D02*
X131244000Y-92458500D01*
X110924000Y-69852500D02*
X110924000Y-72138500D01*
X134674000Y-68678500D02*
X94434000Y-68678500D01*
X130990000Y-68328500D02*
X128958000Y-68328500D01*
X94434000Y-95918500D02*
X134674000Y-95918500D01*
X110924000Y-92458500D02*
X113210000Y-92458500D01*
X131244000Y-92458500D02*
X131244000Y-94998500D01*
X128704000Y-72138500D02*
X131244000Y-72138500D01*
X131244000Y-72138500D02*
X131244000Y-69598500D01*
X134674000Y-95918500D02*
X134674000Y-68678500D01*
X110924000Y-94744500D02*
X110924000Y-92458500D01*
%TO.C,D1*%
X121117000Y-111218000D02*
X121117000Y-120078000D01*
X126787000Y-120078000D02*
X126787000Y-111218000D01*
X126787000Y-111218000D02*
X121117000Y-111218000D01*
%TD*%
M02*
