%TF.GenerationSoftware,KiCad,Pcbnew,(6.0.11-0)*%
%TF.CreationDate,2024-05-25T22:05:18+02:00*%
%TF.ProjectId,The Mechanical Turk,54686520-4d65-4636-9861-6e6963616c20,rev?*%
%TF.SameCoordinates,Original*%
%TF.FileFunction,Paste,Top*%
%TF.FilePolarity,Positive*%
%FSLAX46Y46*%
G04 Gerber Fmt 4.6, Leading zero omitted, Abs format (unit mm)*
G04 Created by KiCad (PCBNEW (6.0.11-0)) date 2024-05-25 22:05:18*
%MOMM*%
%LPD*%
G01*
G04 APERTURE LIST*
G04 Aperture macros list*
%AMRoundRect*
0 Rectangle with rounded corners*
0 $1 Rounding radius*
0 $2 $3 $4 $5 $6 $7 $8 $9 X,Y pos of 4 corners*
0 Add a 4 corners polygon primitive as box body*
4,1,4,$2,$3,$4,$5,$6,$7,$8,$9,$2,$3,0*
0 Add four circle primitives for the rounded corners*
1,1,$1+$1,$2,$3*
1,1,$1+$1,$4,$5*
1,1,$1+$1,$6,$7*
1,1,$1+$1,$8,$9*
0 Add four rect primitives between the rounded corners*
20,1,$1+$1,$2,$3,$4,$5,0*
20,1,$1+$1,$4,$5,$6,$7,0*
20,1,$1+$1,$6,$7,$8,$9,0*
20,1,$1+$1,$8,$9,$2,$3,0*%
G04 Aperture macros list end*
%ADD10RoundRect,0.155000X-0.212500X-0.155000X0.212500X-0.155000X0.212500X0.155000X-0.212500X0.155000X0*%
%ADD11RoundRect,0.250000X-2.400000X0.575000X-2.400000X-0.575000X2.400000X-0.575000X2.400000X0.575000X0*%
%ADD12RoundRect,0.155000X0.212500X0.155000X-0.212500X0.155000X-0.212500X-0.155000X0.212500X-0.155000X0*%
%ADD13RoundRect,0.250001X-4.974999X0.799999X-4.974999X-0.799999X4.974999X-0.799999X4.974999X0.799999X0*%
%ADD14RoundRect,0.250000X-0.575000X-2.400000X0.575000X-2.400000X0.575000X2.400000X-0.575000X2.400000X0*%
%ADD15RoundRect,0.250000X2.400000X-0.575000X2.400000X0.575000X-2.400000X0.575000X-2.400000X-0.575000X0*%
%ADD16R,1.550000X1.300000*%
%ADD17R,1.500000X0.900000*%
%ADD18R,0.900000X1.500000*%
%ADD19R,4.100000X4.100000*%
%ADD20RoundRect,0.249999X1.425001X-0.512501X1.425001X0.512501X-1.425001X0.512501X-1.425001X-0.512501X0*%
%ADD21RoundRect,0.155000X0.155000X-0.212500X0.155000X0.212500X-0.155000X0.212500X-0.155000X-0.212500X0*%
%ADD22RoundRect,0.250001X-2.324999X1.074999X-2.324999X-1.074999X2.324999X-1.074999X2.324999X1.074999X0*%
G04 APERTURE END LIST*
D10*
%TO.C,C3*%
X184344500Y-92710000D03*
X185479500Y-92710000D03*
%TD*%
D11*
%TO.C,R4*%
X147066000Y-109400000D03*
X147066000Y-119200000D03*
%TD*%
D12*
%TO.C,C2*%
X152713500Y-94992000D03*
X151578500Y-94992000D03*
%TD*%
D13*
%TO.C,CIN1*%
X100330000Y-99965000D03*
X100330000Y-108315000D03*
%TD*%
%TO.C,COUT1*%
X135636000Y-103013000D03*
X135636000Y-111363000D03*
%TD*%
D14*
%TO.C,R2*%
X202926000Y-79370000D03*
X212726000Y-79370000D03*
%TD*%
D15*
%TO.C,R1*%
X178562000Y-102690000D03*
X178562000Y-92890000D03*
%TD*%
D16*
%TO.C,SW1*%
X192278000Y-99314000D03*
X184328000Y-99314000D03*
X192278000Y-94814000D03*
X184328000Y-94814000D03*
%TD*%
D17*
%TO.C,U2*%
X155205000Y-91223000D03*
X155205000Y-92723000D03*
X155205000Y-94223000D03*
X155205000Y-95723000D03*
X155205000Y-97223000D03*
X155205000Y-98723000D03*
X155205000Y-100223000D03*
X155205000Y-101723000D03*
X155205000Y-103223000D03*
X155205000Y-104723000D03*
X155205000Y-106223000D03*
X155205000Y-107723000D03*
X155205000Y-109223000D03*
X155205000Y-110723000D03*
X155205000Y-112223000D03*
X155205000Y-113723000D03*
D18*
X157080000Y-114473000D03*
X158580000Y-114473000D03*
X160080000Y-114473000D03*
X161580000Y-114473000D03*
X163080000Y-114473000D03*
X164580000Y-114473000D03*
X166080000Y-114473000D03*
X167580000Y-114473000D03*
X169080000Y-114473000D03*
X170580000Y-114473000D03*
D17*
X172455000Y-113823000D03*
X172455000Y-112323000D03*
X172455000Y-110823000D03*
X172455000Y-109323000D03*
X172455000Y-107823000D03*
X172455000Y-106323000D03*
X172455000Y-104823000D03*
X172455000Y-103323000D03*
X172455000Y-101823000D03*
X172455000Y-100323000D03*
X172455000Y-98823000D03*
X172455000Y-97323000D03*
X172455000Y-95823000D03*
X172455000Y-94223000D03*
X172455000Y-92723000D03*
X172455000Y-91323000D03*
D19*
X162640000Y-99263000D03*
%TD*%
D20*
%TO.C,D2*%
X147066000Y-128463500D03*
X147066000Y-122488500D03*
%TD*%
D21*
%TO.C,C1*%
X152654000Y-92515500D03*
X152654000Y-91380500D03*
%TD*%
D22*
%TO.C,D1*%
X123952000Y-112803000D03*
X123952000Y-119353000D03*
%TD*%
M02*
